<svg width="24" height="25" viewBox="0 0 24 25" fill="none" xmlns="http://www.w3.org/2000/svg">
<path d="M12 2.79053C10.0222 2.79053 8.08879 3.37702 6.4443 4.47583C4.79981 5.57465 3.51809 7.13643 2.76121 8.96369C2.00433 10.791 1.8063 12.8016 2.19215 14.7414C2.578 16.6812 3.53041 18.4631 4.92894 19.8616C6.32746 21.2601 8.10929 22.2125 10.0491 22.5984C11.9889 22.9842 13.9996 22.7862 15.8268 22.0293C17.6541 21.2724 19.2159 19.9907 20.3147 18.3462C21.4135 16.7017 22 14.7683 22 12.7905C22 11.4773 21.7413 10.1769 21.2388 8.96369C20.7363 7.75044 19.9997 6.64805 19.0711 5.71946C18.1425 4.79087 17.0401 4.05428 15.8268 3.55173C14.6136 3.04919 13.3132 2.79053 12 2.79053ZM12 20.7905C10.4178 20.7905 8.87104 20.3213 7.55544 19.4423C6.23985 18.5632 5.21447 17.3138 4.60897 15.852C4.00347 14.3902 3.84504 12.7817 4.15372 11.2298C4.4624 9.67796 5.22433 8.25249 6.34315 7.13367C7.46197 6.01485 8.88743 5.25293 10.4393 4.94425C11.9911 4.63556 13.5997 4.79399 15.0615 5.39949C16.5233 6.00499 17.7727 7.03037 18.6518 8.34597C19.5308 9.66156 20 11.2083 20 12.7905C20 14.9123 19.1572 16.9471 17.6569 18.4474C16.1566 19.9477 14.1217 20.7905 12 20.7905Z" fill="#171725"/>
<path d="M12 17.7905C12.5523 17.7905 13 17.3428 13 16.7905C13 16.2382 12.5523 15.7905 12 15.7905C11.4477 15.7905 11 16.2382 11 16.7905C11 17.3428 11.4477 17.7905 12 17.7905Z" fill="#171725"/>
<path d="M12 7.79053C11.7348 7.79053 11.4804 7.89588 11.2929 8.08342C11.1054 8.27096 11 8.52531 11 8.79053V13.7905C11 14.0557 11.1054 14.3101 11.2929 14.4976C11.4804 14.6852 11.7348 14.7905 12 14.7905C12.2652 14.7905 12.5196 14.6852 12.7071 14.4976C12.8946 14.3101 13 14.0557 13 13.7905V8.79053C13 8.52531 12.8946 8.27096 12.7071 8.08342C12.5196 7.89588 12.2652 7.79053 12 7.79053Z" fill="#171725"/>
</svg>
