<svg width="10" height="15" viewBox="0 0 10 15" fill="none" xmlns="http://www.w3.org/2000/svg">
<path d="M1.53429 0.874754C1.32648 0.870183 1.12242 0.930423 0.950462 1.04719C0.778506 1.16396 0.647204 1.33148 0.574811 1.52632C0.502418 1.72116 0.492531 1.93369 0.546524 2.1344C0.600518 2.33512 0.715708 2.51395 0.876081 2.64618L6.99523 7.88836L0.876081 13.1287C0.765143 13.2102 0.672235 13.3137 0.603176 13.4328C0.534116 13.552 0.490393 13.6841 0.474743 13.8209C0.459094 13.9576 0.471856 14.0962 0.51223 14.2278C0.552605 14.3594 0.619721 14.4813 0.709377 14.5858C0.799033 14.6903 0.909297 14.775 1.03326 14.8349C1.15723 14.8948 1.29223 14.9285 1.42981 14.9338C1.56738 14.9391 1.70457 14.916 1.83278 14.8659C1.961 14.8157 2.07747 14.7396 2.17491 14.6423L9.18078 8.64811C9.2908 8.55423 9.37915 8.43769 9.43972 8.30635C9.5003 8.17502 9.53167 8.03207 9.53167 7.88743C9.53167 7.7428 9.5003 7.59985 9.43972 7.46851C9.37915 7.33717 9.2908 7.22053 9.18078 7.12664L2.17491 1.12666C1.99793 0.969463 1.77093 0.880092 1.53429 0.874523V0.874754Z" fill="#171725"/>
</svg>
