<svg width="32" height="32" viewBox="0 0 32 32" fill="none" xmlns="http://www.w3.org/2000/svg">
<circle cx="16" cy="16" r="15.5" stroke="#E6E6E6"/>
<path d="M16.5933 11.92L11.4067 11.92C10.2667 11.92 9.33333 12.8533 9.33333 13.9933L9.33333 21.5667C9.33333 22.5333 10.0267 22.9467 10.8733 22.4733L13.4933 21.0133C13.7733 20.86 14.2267 20.86 14.5 21.0133L17.12 22.4733C17.9733 22.94 18.6667 22.5333 18.6667 21.5667V13.9933C18.6667 12.8533 17.7333 11.92 16.5933 11.92Z" fill="#426AB8"/>
<path d="M22.6667 11.4067V18.98C22.6667 19.9467 21.9733 20.3533 21.1267 19.8867L19.84 19.1667C19.7333 19.1067 19.6667 18.9933 19.6667 18.8733V13.9933C19.6667 12.3 18.2867 10.92 16.5933 10.92H13.88C13.6333 10.92 13.46 10.66 13.5733 10.4467C13.92 9.78667 14.6133 9.33333 15.4067 9.33333H20.5933C21.7333 9.33333 22.6667 10.2667 22.6667 11.4067Z" fill="#426AB8"/>
</svg>
