<svg width="16" height="20" viewBox="0 0 16 20" fill="none" xmlns="http://www.w3.org/2000/svg">
<path fill-rule="evenodd" clip-rule="evenodd" d="M15.8399 16.1931C15.8399 19.4891 11.3199 19.8701 7.9209 19.8701L7.67766 19.8699C5.5121 19.8646 -9.91821e-05 19.7279 -9.91821e-05 16.1731C-9.91821e-05 12.9444 4.33825 12.5129 7.71138 12.4966L8.16413 12.4963C10.3295 12.5016 15.8399 12.6383 15.8399 16.1931ZM7.9209 13.9961C3.6599 13.9961 1.4999 14.7281 1.4999 16.1731C1.4999 17.6311 3.6599 18.3701 7.9209 18.3701C12.1809 18.3701 14.3399 17.6381 14.3399 16.1931C14.3399 14.7351 12.1809 13.9961 7.9209 13.9961ZM7.9209 -0.000305176C10.8489 -0.000305176 13.2299 2.38169 13.2299 5.30969C13.2299 8.23769 10.8489 10.6187 7.9209 10.6187H7.8889C4.9669 10.6097 2.5999 8.2267 2.60987 5.30669C2.60987 2.3817 4.9919 -0.000305176 7.9209 -0.000305176ZM7.9209 1.42769C5.7799 1.42769 4.03788 3.16869 4.03788 5.30969C4.0309 7.4437 5.7599 9.18369 7.8919 9.1917L7.9209 9.90569V9.1917C10.0609 9.1917 11.8019 7.44969 11.8019 5.30969C11.8019 3.16869 10.0609 1.42769 7.9209 1.42769Z" fill="#9CA4AB"/>
</svg>
