<svg width="18" height="21" viewBox="0 0 18 21" fill="none" xmlns="http://www.w3.org/2000/svg">
<path fill-rule="evenodd" clip-rule="evenodd" d="M11.7008 0C15.0928 0 17.0388 1.679 17.0388 4.604V19.14C17.0388 19.75 16.7248 20.299 16.1968 20.606C15.6708 20.914 15.0368 20.92 14.5048 20.62L8.5448 17.253L2.5298 20.627C2.2698 20.773 1.9848 20.847 1.6988 20.847C1.4038 20.847 1.1088 20.768 0.840802 20.61C0.313802 20.303 -0.000198364 19.754 -0.000198364 19.145V4.421C-0.000198364 1.611 1.9468 0 5.3418 0H11.7008ZM11.7008 1.5H5.3418C2.7928 1.5 1.4998 2.482 1.4998 4.421V19.145C1.4998 19.239 1.5538 19.29 1.5988 19.316C1.6438 19.344 1.7148 19.364 1.7968 19.318L8.1788 15.738C8.4068 15.611 8.6858 15.61 8.9148 15.739L15.2418 19.313C15.3248 19.361 15.3958 19.339 15.4408 19.312C15.4858 19.285 15.5388 19.234 15.5388 19.14L15.5384 4.49004C15.5309 3.62937 15.3643 1.5 11.7008 1.5ZM12.1396 6.7285C12.5536 6.7285 12.8896 7.0645 12.8896 7.4785C12.8896 7.8925 12.5536 8.2285 12.1396 8.2285H4.8216C4.4076 8.2285 4.0716 7.8925 4.0716 7.4785C4.0716 7.0645 4.4076 6.7285 4.8216 6.7285H12.1396Z" fill="#9CA4AB"/>
</svg>
