<svg width="32" height="32" viewBox="0 0 32 32" fill="none" xmlns="http://www.w3.org/2000/svg">
<circle cx="16" cy="16" r="15.5" stroke="#E6E6E6"/>
<path d="M19.2102 12.03L19.21 12.0298L19.2102 12.03Z" fill="#426AB8" stroke="#426AB8"/>
<path d="M10.4933 16.52C10.48 16.52 10.46 16.52 10.4467 16.52C10.18 16.4933 9.98666 16.2533 10.0133 15.9867C10.1933 14.2467 11.1133 12.6733 12.5467 11.66C12.76 11.5067 13.0667 11.56 13.22 11.7733C13.3733 11.9933 13.32 12.2933 13.1067 12.4467C11.9067 13.3 11.1267 14.62 10.98 16.08C10.9533 16.3333 10.74 16.52 10.4933 16.52Z" fill="#426AB8"/>
<path d="M18.66 22.0667C17.84 22.46 16.96 22.66 16.04 22.66C15.08 22.66 14.1667 22.4467 13.3133 22.0133C13.0733 21.9 12.98 21.6067 13.1 21.3667C13.2133 21.1267 13.5067 21.0333 13.7467 21.1467C14.1667 21.36 14.6133 21.5067 15.0667 21.5933C15.68 21.7133 16.3067 21.72 16.92 21.6133C17.3733 21.5333 17.82 21.3933 18.2333 21.1933C18.48 21.08 18.7733 21.1733 18.88 21.42C19 21.66 18.9067 21.9533 18.66 22.0667Z" fill="#426AB8"/>
<path d="M16.0333 9.34C15 9.34 14.1533 10.18 14.1533 11.22C14.1533 12.26 14.9933 13.1 16.0333 13.1C17.0733 13.1 17.9133 12.26 17.9133 11.22C17.9133 10.18 17.0733 9.34 16.0333 9.34Z" fill="#426AB8"/>
<path d="M11.3667 17.2467C10.3333 17.2467 9.48666 18.0867 9.48666 19.1267C9.48666 20.1667 10.3267 21.0067 11.3667 21.0067C12.4067 21.0067 13.2467 20.1667 13.2467 19.1267C13.2467 18.0867 12.4 17.2467 11.3667 17.2467Z" fill="#426AB8"/>
<path d="M20.6333 17.2467C19.6 17.2467 18.7533 18.0867 18.7533 19.1267C18.7533 20.1667 19.5933 21.0067 20.6333 21.0067C21.6733 21.0067 22.5133 20.1667 22.5133 19.1267C22.5133 18.0867 21.6733 17.2467 20.6333 17.2467Z" fill="#426AB8"/>
</svg>
