<svg width="19" height="19" viewBox="0 0 19 19" fill="none" xmlns="http://www.w3.org/2000/svg">
<path d="M11.5 0V1.5H16.4395L10.6735 7.26675C9.46389 6.32692 7.94151 5.88348 6.41638 6.02673C4.89126 6.16998 3.47808 6.88914 2.4646 8.03779C1.45112 9.18643 0.913559 10.6782 0.961371 12.2093C1.00918 13.7404 1.63878 15.1957 2.72195 16.2788C3.80512 17.362 5.26042 17.9916 6.79151 18.0394C8.3226 18.0872 9.81435 17.5497 10.963 16.5362C12.1116 15.5227 12.8308 14.1095 12.9741 12.5844C13.1173 11.0593 12.6739 9.53689 11.734 8.32725L17.5 2.5605V7.5H19V0H11.5ZM7.00003 16.5C6.11001 16.5 5.23998 16.2361 4.49996 15.7416C3.75994 15.2471 3.18317 14.5443 2.84257 13.7221C2.50198 12.8998 2.41286 11.995 2.58649 11.1221C2.76013 10.2492 3.18871 9.44736 3.81805 8.81802C4.44738 8.18868 5.24921 7.7601 6.12212 7.58647C6.99504 7.41283 7.89984 7.50195 8.7221 7.84254C9.54437 8.18314 10.2472 8.75991 10.7416 9.49993C11.2361 10.24 11.5 11.11 11.5 12C11.4986 13.193 11.0241 14.3368 10.1805 15.1804C9.33686 16.0241 8.19308 16.4986 7.00003 16.5Z" fill="black"/>
</svg>
