<svg width="72" height="76" viewBox="0 0 72 76" fill="none" xmlns="http://www.w3.org/2000/svg">
<circle cx="36" cy="36" r="36" fill="white"/>
<circle cx="36" cy="36" r="32" fill="#F8FAFC"/>
<path fill-rule="evenodd" clip-rule="evenodd" d="M29.8982 30.605C29.7169 30.3677 29.4249 30.2424 29.1281 30.2746C28.8313 30.3069 28.573 30.4921 28.4469 30.7628L21.0928 45.4768C20.9566 45.7494 20.9711 46.0732 21.1313 46.3325C21.2914 46.5918 21.5743 46.7497 21.8789 46.7497H32.1191C32.4542 46.7575 32.7623 46.5669 32.9052 46.2635C35.1141 41.6957 33.7754 34.7505 29.8982 30.605Z" fill="#00CC9A"/>
<path fill-rule="evenodd" clip-rule="evenodd" d="M35.292 17.222C31.5641 22.9621 31.1339 30.243 34.1597 36.3827L39.0966 46.2635C39.2455 46.5615 39.5498 46.7497 39.8827 46.7498H50.1211C50.4257 46.7497 50.7086 46.5919 50.8687 46.3326C51.0289 46.0733 51.0434 45.7495 50.9072 45.4768C50.9072 45.4768 37.1332 17.9061 36.787 17.2165C36.6474 16.9301 36.3563 16.7488 36.0378 16.75C35.7193 16.7512 35.4296 16.9346 35.292 17.222Z" fill="#00CC9A"/>
<path d="M43.3333 68L41.7067 66.14L41.9333 63.68L39.5267 63.1333L38.2667 61L36 61.9733L33.7333 61L32.4733 63.1267L30.0667 63.6667L30.2933 66.1333L28.6667 68L30.2933 69.86L30.0667 72.3267L32.4733 72.8733L33.7333 75L36 74.02L38.2667 74.9933L39.5267 72.8667L41.9333 72.32L41.7067 69.86L43.3333 68ZM34.2533 70.6733L32.6667 69.0733C32.6049 69.0117 32.5558 68.9384 32.5224 68.8577C32.4889 68.7771 32.4717 68.6906 32.4717 68.6033C32.4717 68.516 32.4889 68.4296 32.5224 68.3489C32.5558 68.2683 32.6049 68.195 32.6667 68.1333L32.7133 68.0867C32.9733 67.8267 33.4 67.8267 33.66 68.0867L34.7333 69.1667L38.1667 65.7267C38.4267 65.4667 38.8533 65.4667 39.1133 65.7267L39.16 65.7733C39.42 66.0333 39.42 66.4533 39.16 66.7133L35.2133 70.6733C34.94 70.9333 34.52 70.9333 34.2533 70.6733Z" fill="#22C55E"/>
</svg>
