<svg width="20" height="21" viewBox="0 0 20 21" fill="none" xmlns="http://www.w3.org/2000/svg">
<path d="M15.0306 8.33159C15.1004 8.40124 15.1557 8.48396 15.1934 8.57501C15.2312 8.66606 15.2506 8.76365 15.2506 8.86221C15.2506 8.96077 15.2312 9.05837 15.1934 9.14942C15.1557 9.24047 15.1004 9.32318 15.0306 9.39284L12.0306 12.3928C11.961 12.4626 11.8783 12.5179 11.7872 12.5556C11.6962 12.5934 11.5986 12.6128 11.5 12.6128C11.4014 12.6128 11.3038 12.5934 11.2128 12.5556C11.1217 12.5179 11.039 12.4626 10.9694 12.3928L8.5 9.92252L6.03062 12.3928C5.88989 12.5336 5.69902 12.6126 5.5 12.6126C5.30098 12.6126 5.1101 12.5336 4.96937 12.3928C4.82864 12.2521 4.74958 12.0612 4.74958 11.8622C4.74958 11.6632 4.82864 11.4723 4.96937 11.3316L7.96937 8.33159C8.03903 8.26185 8.12175 8.20654 8.21279 8.16879C8.30384 8.13105 8.40144 8.11162 8.5 8.11162C8.59856 8.11162 8.69616 8.13105 8.7872 8.16879C8.87825 8.20654 8.96097 8.26185 9.03063 8.33159L11.5 10.8019L13.9694 8.33159C14.039 8.26185 14.1217 8.20654 14.2128 8.16879C14.3038 8.13105 14.4014 8.11162 14.5 8.11162C14.5986 8.11162 14.6962 8.13105 14.7872 8.16879C14.8783 8.20654 14.961 8.26185 15.0306 8.33159ZM19.75 10.3622C19.7504 12.0455 19.3149 13.7003 18.486 15.1653C17.6572 16.6304 16.4631 17.856 15.02 18.7227C13.577 19.5894 11.9341 20.0677 10.2514 20.1111C8.56863 20.1545 6.9033 19.7615 5.4175 18.9703L2.22531 20.0344C1.96102 20.1225 1.6774 20.1353 1.40624 20.0713C1.13509 20.0073 0.887113 19.8691 0.69011 19.6721C0.493108 19.4751 0.354864 19.2271 0.290873 18.956C0.226882 18.6848 0.239673 18.4012 0.327812 18.1369L1.39187 14.9447C0.696389 13.6371 0.307935 12.1883 0.255998 10.7081C0.20406 9.22798 0.490005 7.75547 1.09213 6.40234C1.69425 5.04921 2.59672 3.85104 3.73105 2.89877C4.86537 1.9465 6.20173 1.26516 7.63869 0.90647C9.07565 0.54778 10.5754 0.521168 12.0242 0.828651C13.473 1.13613 14.8327 1.76963 16.0001 2.68106C17.1675 3.59249 18.1119 4.75789 18.7616 6.0888C19.4114 7.41971 19.7494 8.88116 19.75 10.3622ZM18.25 10.3622C18.2496 9.0967 17.9582 7.84824 17.3981 6.71341C16.838 5.57858 16.0244 4.58781 15.0201 3.81774C14.0159 3.04768 12.8479 2.51897 11.6067 2.27251C10.3654 2.02606 9.08405 2.06847 7.86178 2.39646C6.63951 2.72445 5.50909 3.32923 4.55796 4.16402C3.60682 4.9988 2.86049 6.0412 2.37668 7.21058C1.89288 8.37996 1.68458 9.64497 1.7679 10.9077C1.85122 12.1705 2.22393 13.3972 2.85719 14.4928C2.91034 14.5848 2.94334 14.687 2.954 14.7927C2.96467 14.8984 2.95276 15.0052 2.91906 15.106L1.75 18.6122L5.25625 17.4422C5.35707 17.4087 5.46386 17.3969 5.56956 17.4077C5.67526 17.4186 5.77746 17.4517 5.86937 17.505C7.12354 18.2304 8.54662 18.6128 9.99547 18.6136C11.4443 18.6144 12.8678 18.2336 14.1228 17.5096C15.3777 16.7855 16.4199 15.7438 17.1444 14.4891C17.8689 13.2344 18.2502 11.8111 18.25 10.3622Z" fill="#00CC9A"/>
</svg>
