<svg width="32" height="32" viewBox="0 0 32 32" fill="none" xmlns="http://www.w3.org/2000/svg">
<circle cx="16" cy="16" r="15.5" stroke="#E6E6E6"/>
<path d="M10.0376 11.259L10.0376 11.259L10.0386 11.2564C10.17 10.9224 10.3799 10.6097 10.6831 10.3237L10.6832 10.3238L10.6908 10.3163C11.042 9.97062 11.3879 9.83333 11.7267 9.83333C11.8433 9.83333 11.9554 9.85856 12.0503 9.90409L12.0503 9.90415L12.0571 9.90731C12.1562 9.95303 12.2372 10.0173 12.3022 10.1113L12.3022 10.1113L12.3055 10.116L13.8522 12.296L13.8522 12.296L13.8542 12.2988C13.9561 12.4403 14.0216 12.5594 14.0639 12.6626L14.0638 12.6627L14.0671 12.6703C14.1076 12.7648 14.12 12.8372 14.12 12.88C14.12 12.9394 14.1034 13.0104 14.0529 13.0934L14.0487 13.1003L14.0447 13.1073C13.986 13.2112 13.8905 13.3358 13.7531 13.4731L13.753 13.473L13.7463 13.48L13.2424 14.0039C13.0704 14.178 12.9933 14.3939 12.9933 14.62C12.9933 14.7207 13.0067 14.8084 13.0283 14.8946L13.0352 14.9222L13.0452 14.9489C13.0582 14.9837 13.0713 15.0147 13.0797 15.0343C13.0805 15.0362 13.0813 15.0381 13.082 15.0398C13.0907 15.0603 13.0924 15.065 13.0924 15.065L13.1064 15.107L13.1277 15.1461C13.2713 15.4094 13.5028 15.7258 13.805 16.083L13.8049 16.083L13.8086 16.0872C14.1137 16.4397 14.4408 16.8011 14.7964 17.1635L14.7964 17.1635L14.7998 17.1669C14.8374 17.2046 14.8762 17.2414 14.9099 17.2736L14.9118 17.2754C14.9477 17.3095 14.9782 17.3386 15.0064 17.3669L15.0064 17.3669L15.0109 17.3713C15.0804 17.439 15.0805 17.5457 15.0131 17.6131L13.7798 18.8464C13.7176 18.9087 13.616 18.9156 13.5409 18.8471C13.5022 18.8086 13.4642 18.7723 13.4303 18.74L13.4286 18.7383C13.3916 18.7031 13.3594 18.6723 13.3278 18.6407C12.6589 17.9652 12.0559 17.2583 11.5184 16.5202C10.9903 15.7859 10.5707 15.0593 10.2679 14.347C9.97502 13.6358 9.83333 12.9749 9.83333 12.36C9.83333 11.9659 9.90276 11.5961 10.0376 11.259Z" fill="#426AB8" stroke="#426AB8"/>
<path d="M22.6467 20.22C22.6467 20.4067 22.6133 20.6 22.5467 20.7867C22.5267 20.84 22.5067 20.8933 22.48 20.9467C22.3667 21.1867 22.22 21.4133 22.0267 21.6267C21.7 21.9867 21.34 22.2467 20.9333 22.4133C20.9267 22.4133 20.92 22.42 20.9133 22.42C20.52 22.58 20.0933 22.6667 19.6333 22.6667C18.9533 22.6667 18.2267 22.5067 17.46 22.18C16.6933 21.8533 15.9267 21.4133 15.1667 20.86C14.9067 20.6667 14.6467 20.4733 14.4 20.2667L16.58 18.0867C16.7667 18.2267 16.9333 18.3333 17.0733 18.4067C17.1067 18.42 17.1467 18.44 17.1933 18.46C17.2467 18.48 17.3 18.4867 17.36 18.4867C17.4733 18.4867 17.56 18.4467 17.6333 18.3733L18.14 17.8733C18.3067 17.7067 18.4667 17.58 18.62 17.5C18.7733 17.4067 18.9267 17.36 19.0933 17.36C19.22 17.36 19.3533 17.3867 19.5 17.4467C19.6467 17.5067 19.8 17.5933 19.9667 17.7067L22.1733 19.2733C22.3467 19.3933 22.4667 19.5333 22.54 19.7C22.6067 19.8667 22.6467 20.0333 22.6467 20.22Z" fill="#426AB8"/>
</svg>
