<svg width="24" height="25" viewBox="0 0 24 25" fill="none" xmlns="http://www.w3.org/2000/svg">
<path d="M12 2.79053C10.0222 2.79053 8.08879 3.37702 6.4443 4.47583C4.79981 5.57465 3.51809 7.13643 2.76121 8.96369C2.00433 10.791 1.8063 12.8016 2.19215 14.7414C2.578 16.6812 3.53041 18.4631 4.92894 19.8616C6.32746 21.2601 8.10929 22.2125 10.0491 22.5984C11.9889 22.9842 13.9996 22.7862 15.8268 22.0293C17.6541 21.2724 19.2159 19.9907 20.3147 18.3462C21.4135 16.7017 22 14.7683 22 12.7905C22 11.4773 21.7413 10.1769 21.2388 8.96369C20.7363 7.75044 19.9997 6.64805 19.0711 5.71946C18.1425 4.79087 17.0401 4.05428 15.8268 3.55173C14.6136 3.04919 13.3132 2.79053 12 2.79053ZM12 20.7905C10.4178 20.7905 8.87104 20.3213 7.55544 19.4423C6.23985 18.5632 5.21447 17.3138 4.60897 15.852C4.00347 14.3902 3.84504 12.7817 4.15372 11.2298C4.4624 9.67796 5.22433 8.25249 6.34315 7.13367C7.46197 6.01485 8.88743 5.25293 10.4393 4.94425C11.9911 4.63556 13.5997 4.79399 15.0615 5.39949C16.5233 6.00499 17.7727 7.03037 18.6518 8.34597C19.5308 9.66156 20 11.2083 20 12.7905C20 14.9123 19.1572 16.9471 17.6569 18.4474C16.1566 19.9477 14.1217 20.7905 12 20.7905Z" fill="#171725"/>
<path d="M12 6.79053C11.0717 6.79053 10.1815 7.15928 9.52513 7.81565C8.86875 8.47203 8.5 9.36227 8.5 10.2905C8.5 10.5557 8.60536 10.8101 8.79289 10.9976C8.98043 11.1852 9.23478 11.2905 9.5 11.2905C9.76522 11.2905 10.0196 11.1852 10.2071 10.9976C10.3946 10.8101 10.5 10.5557 10.5 10.2905C10.5 9.99385 10.588 9.70384 10.7528 9.45717C10.9176 9.2105 11.1519 9.01824 11.426 8.90471C11.7001 8.79118 12.0017 8.76147 12.2926 8.81935C12.5836 8.87723 12.8509 9.02009 13.0607 9.22987C13.2704 9.43964 13.4133 9.70692 13.4712 9.99789C13.5291 10.2889 13.4994 10.5905 13.3858 10.8646C13.2723 11.1386 13.08 11.3729 12.8334 11.5377C12.5867 11.7026 12.2967 11.7905 12 11.7905C11.7348 11.7905 11.4804 11.8959 11.2929 12.0834C11.1054 12.271 11 12.5253 11 12.7905V14.7905C11 15.0557 11.1054 15.3101 11.2929 15.4976C11.4804 15.6852 11.7348 15.7905 12 15.7905C12.2652 15.7905 12.5196 15.6852 12.7071 15.4976C12.8946 15.3101 13 15.0557 13 14.7905V13.6305C13.8081 13.3945 14.5037 12.8744 14.9585 12.166C15.4133 11.4575 15.5967 10.6086 15.4749 9.77559C15.3532 8.94259 14.9344 8.18168 14.2958 7.63312C13.6572 7.08455 12.8418 6.7853 12 6.79053Z" fill="#171725"/>
<path d="M12 18.7905C12.5523 18.7905 13 18.3428 13 17.7905C13 17.2382 12.5523 16.7905 12 16.7905C11.4477 16.7905 11 17.2382 11 17.7905C11 18.3428 11.4477 18.7905 12 18.7905Z" fill="#171725"/>
</svg>
