<svg width="24" height="24" viewBox="0 0 24 24" fill="none" xmlns="http://www.w3.org/2000/svg">
<path d="M7 3.5L17 3.5C20 3.5 22 5 22 8.5L22 15.5C22 19 20 20.5 17 20.5L7 20.5C4 20.5 2 19 2 15.5L2 8.5C2 5 4 3.5 7 3.5Z" stroke="black" stroke-opacity="0.7" stroke-width="1.5" stroke-miterlimit="10" stroke-linecap="round" stroke-linejoin="round"/>
<path d="M12 9C10.3431 9 9 10.3431 9 12C9 13.6569 10.3431 15 12 15C13.6569 15 15 13.6569 15 12C15 10.3431 13.6569 9 12 9Z" stroke="black" stroke-opacity="0.7" stroke-width="1.5" stroke-miterlimit="10" stroke-linecap="round" stroke-linejoin="round"/>
<path d="M22 15L21 15C18 15 17 16 17 19L17 20" stroke="black" stroke-opacity="0.7" stroke-width="1.5" stroke-miterlimit="10" stroke-linecap="round" stroke-linejoin="round"/>
<path d="M2 15L3 15C6 15 7 16 7 19L7 20" stroke="black" stroke-opacity="0.7" stroke-width="1.5" stroke-miterlimit="10" stroke-linecap="round" stroke-linejoin="round"/>
<path d="M22 9L21 9C18 9 17 8 17 5L17 4" stroke="black" stroke-opacity="0.7" stroke-width="1.5" stroke-miterlimit="10" stroke-linecap="round" stroke-linejoin="round"/>
<path d="M2 9L3 9C6 9 7 8 7 5L7 4" stroke="black" stroke-opacity="0.7" stroke-width="1.5" stroke-miterlimit="10" stroke-linecap="round" stroke-linejoin="round"/>
</svg>
