<svg width="12" height="11" viewBox="0 0 12 11" fill="none" xmlns="http://www.w3.org/2000/svg">
<path d="M6.86495 1.72084L7.74496 3.28774C7.86496 3.50586 8.18496 3.71507 8.45496 3.75514L10.05 3.99106C11.07 4.14241 11.31 4.80122 10.575 5.45113L9.33496 6.55508C9.12496 6.74204 9.00996 7.1026 9.07495 7.36079L9.42996 8.72737C9.70996 9.80907 9.06496 10.2275 7.98996 9.66217L6.49496 8.87427C6.22496 8.73182 5.77996 8.73182 5.50496 8.87427L4.00996 9.66217C2.93995 10.2275 2.28995 9.80462 2.56995 8.72737L2.92495 7.36079C2.98995 7.1026 2.87495 6.74204 2.66495 6.55508L1.42495 5.45113C0.694954 4.80122 0.929955 4.14241 1.94995 3.99106L3.54495 3.75514C3.80995 3.71507 4.12995 3.50586 4.24995 3.28774L5.12996 1.72084C5.60996 0.870619 6.38996 0.870619 6.86495 1.72084Z" fill="#F7BA28"/>
</svg>
