<svg width="18" height="21" viewBox="0 0 18 21" fill="none" xmlns="http://www.w3.org/2000/svg">
<path d="M9.00008 20.6403C8.65063 20.6458 8.30584 20.5596 8.00008 20.3903L7.70008 20.2203C5.36335 18.8983 3.41934 16.9798 2.06655 14.6607C0.713767 12.3416 0.000670048 9.7051 8.0152e-05 7.02031V6.88031C-0.00308979 6.5262 0.0878186 6.1776 0.263514 5.87013C0.439209 5.56266 0.693391 5.30736 1.00008 5.13031L8.00008 1.19031C8.30412 1.01478 8.64901 0.922363 9.00008 0.922363C9.35115 0.922363 9.69604 1.01478 10.0001 1.19031L17.0001 5.13031C17.3068 5.30736 17.561 5.56266 17.7366 5.87013C17.9123 6.1776 18.0033 6.5262 18.0001 6.88031V7.02031C17.9975 9.70708 17.2814 12.345 15.925 14.6642C14.5686 16.9834 12.6205 18.9008 10.2801 20.2203L9.98008 20.3903C9.68023 20.5562 9.34277 20.6423 9.00008 20.6403ZM9.00008 2.94031L2.00008 6.88031V7.02031C2.00176 9.35141 2.62308 11.6402 3.80038 13.6521C4.97769 15.6641 6.66866 17.3269 8.70008 18.4703L9.00008 18.6403L9.30008 18.4703C11.3315 17.3269 13.0225 15.6641 14.1998 13.6521C15.3771 11.6402 15.9984 9.35141 16.0001 7.02031V6.88031L9.00008 2.94031Z" fill="#171725"/>
</svg>
