<svg width="24" height="22" viewBox="0 0 24 22" fill="none" xmlns="http://www.w3.org/2000/svg">
<path d="M4.5551 15.5555C2.60745 15.5555 1.02856 14.2272 1.02856 12.2795C1.02856 10.3319 2.60745 8.75301 4.5551 8.75301C4.68754 8.75301 4.81828 8.76032 4.94693 8.77454V8.75301H4.99544C4.96342 8.49629 4.94693 8.23474 4.94693 7.96934C4.94693 4.50685 7.75383 1.69995 11.2163 1.69995C13.561 1.69995 15.6051 2.98709 16.6805 4.89332C16.9433 4.85467 17.2122 4.83464 17.4857 4.83464C20.5154 4.83464 22.9714 7.29068 22.9714 10.3204C22.9714 12.8143 21.3071 14.7156 19.0286 15.3423M11.8269 20.3V11.3M11.8269 11.3L8.22856 15.0117M11.8269 11.3L15.4286 15.0117" stroke="#239B69" stroke-width="2" stroke-linecap="round" stroke-linejoin="round"/>
</svg>
