<svg width="24" height="25" viewBox="0 0 24 25" fill="none" xmlns="http://www.w3.org/2000/svg">
<path d="M19.05 5.27221C18.1332 4.34614 17.0412 3.61188 15.8377 3.11226C14.6341 2.61265 13.3432 2.35767 12.04 2.36221C6.58005 2.36221 2.13005 6.81221 2.13005 12.2722C2.13005 14.0222 2.59005 15.7222 3.45005 17.2222L2.05005 22.3622L7.30005 20.9822C8.75005 21.7722 10.38 22.1922 12.04 22.1922C17.5 22.1922 21.9501 17.7422 21.9501 12.2822C21.9501 9.63221 20.92 7.14221 19.05 5.27221ZM12.04 20.5122C10.56 20.5122 9.11005 20.1122 7.84005 19.3622L7.54005 19.1822L4.42005 20.0022L5.25005 16.9622L5.05005 16.6522C4.2278 15.3392 3.79119 13.8215 3.79005 12.2722C3.79005 7.73221 7.49005 4.03221 12.03 4.03221C14.23 4.03221 16.3 4.89221 17.85 6.45221C18.6175 7.21618 19.2257 8.12487 19.6394 9.12564C20.0531 10.1264 20.2641 11.1993 20.26 12.2822C20.2801 16.8222 16.58 20.5122 12.04 20.5122ZM16.56 14.3522C16.31 14.2322 15.09 13.6322 14.87 13.5422C14.64 13.4622 14.48 13.4222 14.31 13.6622C14.14 13.9122 13.67 14.4722 13.53 14.6322C13.39 14.8022 13.24 14.8222 12.99 14.6922C12.74 14.5722 11.94 14.3022 11 13.4622C10.26 12.8022 9.77005 11.9922 9.62005 11.7422C9.48005 11.4922 9.60005 11.3622 9.73005 11.2322C9.84005 11.1222 9.98005 10.9422 10.1 10.8022C10.22 10.6622 10.27 10.5522 10.35 10.3922C10.43 10.2222 10.39 10.0822 10.33 9.96221C10.27 9.84221 9.77005 8.62221 9.57005 8.12221C9.37005 7.64221 9.16005 7.70221 9.01005 7.69221H8.53005C8.36005 7.69221 8.10005 7.75221 7.87005 8.00221C7.65005 8.25221 7.01005 8.85221 7.01005 10.0722C7.01005 11.2922 7.90005 12.4722 8.02005 12.6322C8.14005 12.8022 9.77005 15.3022 12.25 16.3722C12.84 16.6322 13.3 16.7822 13.66 16.8922C14.25 17.0822 14.79 17.0522 15.22 16.9922C15.7 16.9222 16.69 16.3922 16.89 15.8122C17.1 15.2322 17.1 14.7422 17.03 14.6322C16.96 14.5222 16.81 14.4722 16.56 14.3522Z" fill="white"/>
</svg>
